<svg height="960" viewBox="0 0 960 960" width="960" xmlns="http://www.w3.org/2000/svg"><g fill="none" fill-rule="evenodd" transform="translate(226 24)"><path d="m254 0c140.280326 0 254 113.591023 254 253.712652 0 48.826627-13.808252 94.431813-37.736959 133.131932-6.031435 9.754696-38.852302 70.233751-46.56889 89.958729-22.876863 58.477347-36.061221 110.563989-43.371267 174.849651-2.865709 18.398941-5.11388 30.420739-6.744513 36.065392-2.144426 7.423217-10.68945 19.363962-13.679197 19.474816-28.901282 1.071608-184.391102 1.075757-214.271248.012432-3.206981-.114125-13.629612-16.007622-16.094642-24.264158-1.58838-5.320225-3.047803-14.879096-4.37827-28.676612-7.131359-64.431773-20.051828-116.48531-42.5447281-174.591411-8.9759028-23.187526-45.1022592-92.692989-50.7852393-102.907198-20.2775243-36.445469-31.8250466-78.402512-31.8250466-123.053573 0-140.121629 113.719674-253.712652 254-253.712652z" stroke="#000" stroke-linecap="round" stroke-linejoin="round" stroke-width="40"/><path d="m35 416c69.242892-4.5 145.286632-8.993832 216.999669-9 72.975937-.006156 149.747204 4.991549 217.000331 9" stroke="#000" stroke-linecap="round" stroke-linejoin="round" stroke-width="20" transform="matrix(1 0 0 -1 0 823)"/><path d="m354 716c-1.30578 7.94278-2.262481 44.618677-3.220924 54.188107-.609364 10.561488-1.217857 21.753957-1.566936 32.316347-.232139 8.124221-.232139 20.851867 0 38.182937l-37.518541 39.899856-24.462483 22.115936-.609363.361076c-4.439652 3.970939-8.878434 7.943683-32.121318 8.935741h-.349078c-22.894676-.992058-27.333458-4.964802-31.77398-8.935741l-.609364-.361076-24.461612-22.115936-37.171204-39.899856h-.347337c.231558-17.33107.231558-30.058716 0-38.182937-.262027-10.56239-.958443-21.754859-1.567807-32.316347-.957572-9.56943-1.914273-46.245327-3.220053-54.188107" stroke="#000" stroke-linecap="round" stroke-linejoin="round" stroke-width="40"/><path d="m158.063059 819c-7.471756 36.666667 24.443151 55 95.744722 55s101.688401-18.333333 91.16049-55c-28.804849 5.834727-59.148191 8.75209-91.030029 8.75209-31.881837 0-63.840231-2.917363-95.875183-8.75209z" fill="#000"/><g stroke="#000" stroke-linecap="round" stroke-linejoin="round"><path d="m157 750c28.389047 4 69.389047 6 123 6" stroke-width="20"/><path d="m157 777c28.389047 4.666667 69.389047 7 123 7" stroke-width="20"/><path d="m157 805c28.389047 4 69.389047 6 123 6" stroke-width="20"/><path d="m210.667579 423 4.656797 285.892127" stroke-width="20"/><path d="m292.667579 423 4.656797 285.892127" stroke-width="20" transform="matrix(-1 0 0 1 590 0)"/></g></g></svg>