<?xml version="1.0" encoding="UTF-8"?>
<svg width="960px" height="960px" viewBox="0 0 960 960" version="1.1" xmlns="http://www.w3.org/2000/svg" xmlns:xlink="http://www.w3.org/1999/xlink">
    <style type="text/css">
    .pair {
        animation: pairing 11s infinite;
    }

    @keyframes pairing {
        0%, 5%, 15%, 25%, 35%, 45%, 55%, 100% {
            fill: rgba(255,255,255,0);
        }
        10%, 20%, 30%, 40%, 50% {
            fill: #FFF67A;
        }
    }
    </style>
    <title>com.sengled/driver/a19/pair/assets/image</title>
    <g id="com.sengled/driver/a19/pair/assets/image" stroke="none" stroke-width="1" fill="none" fill-rule="evenodd">
        <path d="M480,24 C620.280326,24 734,137.591023 734,277.712652 C734,326.051013 720.466532,371.232039 696.977862,409.681513 L695.948811,411.358591 L695.948811,411.358591 L695.058785,412.85585 L695.058785,412.85585 L693.79046,415.046527 L693.79046,415.046527 L692.479832,417.349609 L692.479832,417.349609 L690.547595,420.790528 L690.547595,420.790528 L688.370485,424.712779 L688.370485,424.712779 L685.707838,429.558569 L685.707838,429.558569 L684.581517,431.622047 L684.581517,431.622047 L662.380383,432.954226 L662.380383,432.954226 L649.458661,433.719498 L649.458661,433.719498 L639.669065,434.289062 L639.669065,434.289062 L629.803796,434.851001 L629.803796,434.851001 L623.188727,435.219672 L623.188727,435.219672 L616.54575,435.582378 L616.54575,435.582378 L609.877156,435.938088 L609.877156,435.938088 L603.185235,436.285771 C600.950961,436.400213 598.713181,436.513146 596.472276,436.624398 L589.740571,436.952937 C552.668833,438.730273 514.850356,440.000068 477.999669,440.000068 C434.505238,440.000068 389.417756,438.341738 345.220714,436.036253 L337.195253,435.610123 C335.859496,435.53798 334.524694,435.465295 333.190918,435.392096 L325.201112,434.946951 C323.871712,434.871806 322.543476,434.796203 321.216471,434.720168 L313.269785,434.259014 L313.269785,434.259014 L305.355991,433.788855 L305.355991,433.788855 L297.478407,433.311028 L297.478407,433.311028 L289.640349,432.826868 L289.640349,432.826868 L281.845136,432.33771 L281.845136,432.33771 L274.096083,431.84489 L274.096083,431.84489 L268.67506,421.322655 L268.67506,421.322655 L264.413268,413.138615 L264.413268,413.138615 L261.637188,407.861896 L261.637188,407.861896 L260.001008,404.782615 L260.001008,404.782615 L258.26947,401.572377 L258.26947,401.572377 L257.825047,400.766225 C237.547522,364.320756 226,322.363713 226,277.712652 C226,137.591023 339.719674,24 480,24 Z" class="pair" fill="#FFF67A"></path>
        <path d="M480,24 C620.280326,24 734,137.591023 734,277.712652 C734,326.539279 720.191748,372.144465 696.263041,410.844584 C690.231606,420.59928 657.410739,481.078335 649.694151,500.803313 C626.817288,559.28066 613.63293,611.367302 606.322884,675.652964 C603.457175,694.051905 601.209004,706.073703 599.578371,711.718356 C597.433945,719.141573 588.888921,731.082318 585.899174,731.193172 C556.997892,732.26478 401.508072,732.268929 371.627926,731.205604 C368.420945,731.091479 357.998314,715.197982 355.533284,706.941446 C353.944904,701.621221 352.485481,692.06235 351.155014,678.264834 C344.023655,613.833061 331.103186,561.779524 308.610286,503.673423 C299.634383,480.485897 263.508027,410.980434 257.825047,400.766225 C237.547522,364.320756 226,322.363713 226,277.712652 C226,137.591023 339.719674,24 480,24 Z" id="Path" stroke="#000000" stroke-width="40" stroke-linecap="round" stroke-linejoin="round"></path>
        <path d="M261,440 C330.242892,435.5 406.286632,431.006168 477.999669,431 C550.975606,430.993844 627.746873,435.991549 695,440" id="Stroke-7" stroke="#000000" stroke-width="20" stroke-linecap="round" stroke-linejoin="round" transform="translate(478.000000, 435.500000) scale(1, -1) translate(-478.000000, -435.500000) "></path>
        <path d="M580,740 C578.69422,747.94278 577.737519,784.618677 576.779076,794.188107 C576.169712,804.749595 575.561219,815.942064 575.21214,826.504454 C574.980001,834.628675 574.980001,847.356321 575.21214,864.687391 L537.693599,904.587247 L513.231116,926.703183 L512.621753,927.064259 C508.182101,931.035198 503.743319,935.007942 480.500435,936 L480.151357,936 C457.256681,935.007942 452.817899,931.035198 448.377377,927.064259 L447.768013,926.703183 L423.306401,904.587247 L386.135197,864.687391 L385.78786,864.687391 C386.019418,847.356321 386.019418,834.628675 385.78786,826.504454 C385.525833,815.942064 384.829417,804.749595 384.220053,794.188107 C383.262481,784.618677 382.30578,747.94278 381,740" id="Path" stroke="#000000" stroke-width="40" stroke-linecap="round" stroke-linejoin="round"></path>
        <path d="M384.063059,843 C376.591303,879.666667 408.50621,898 479.807781,898 C551.109352,898 581.496182,879.666667 570.968271,843 C542.163422,848.834727 511.82008,851.75209 479.938242,851.75209 C448.056405,851.75209 416.098011,848.834727 384.063059,843 Z" id="Path-9" fill="#000000"></path>
        <path d="M383,774 C411.389047,778 452.389047,780 506,780" id="Path-10" stroke="#000000" stroke-width="20" stroke-linecap="round" stroke-linejoin="round"></path>
        <path d="M383,801 C411.389047,805.666667 452.389047,808 506,808" id="Path-10" stroke="#000000" stroke-width="20" stroke-linecap="round" stroke-linejoin="round"></path>
        <path d="M383,829 C411.389047,833 452.389047,835 506,835" id="Path-10" stroke="#000000" stroke-width="20" stroke-linecap="round" stroke-linejoin="round"></path>
        <line x1="436.667579" y1="447" x2="441.324376" y2="732.892127" id="Path-6" stroke="#000000" stroke-width="20" stroke-linecap="round" stroke-linejoin="round"></line>
        <line x1="518.667579" y1="447" x2="523.324376" y2="732.892127" id="Path-6" stroke="#000000" stroke-width="20" stroke-linecap="round" stroke-linejoin="round" transform="translate(521.000000, 590.000000) scale(-1, 1) translate(-521.000000, -590.000000) "></line>
    </g>
</svg>