<svg height="960" viewBox="0 0 960 960" width="960" xmlns="http://www.w3.org/2000/svg"><g fill="none" fill-rule="evenodd" transform="translate(239 21)"><path d="m122.766373 722c-3.851436-5.513883-7.962724-12.002389-12.391469-19.56511-2.215938-3.77447-4.698615-8.856788-4.750585-13.422356-.69565-55.131318-2.06441-111.524759-13.3707645-165.40648-13.0745967-62.308823-64.3342037-167.788542-71.4691602-183.084353-6.5720466-14.089054 6.1189096 14.087101-.1623863-.134-5.7432893-13.003034-10.3811128-26.607495-13.79328396-40.694482-1.8747849-8.049437-3.31764941-15.596846-4.30856243-22.333963l-.00563374-.035231c-.00062598-.003145-.00062598-.00692-.00187792-.010694-1.65506888-11.461719-2.51264995-23.18326-2.51264995-35.106115 0-133.767867 107.899348-242.207216 241.000313-242.207216 133.099713 0 240.999687 108.439349 240.999687 242.207216 0 35.001683-7.388343 68.269544-20.681475 98.314485-10.061027 22.739783 10.408066-22.535269-.102919 0-7.134331 15.295811-58.394564 120.77553-71.46916 183.084353-11.306355 53.881721-12.675115 110.275162-13.370765 165.40648-.05197 4.565568-2.534647 9.647886-4.750585 13.422356-4.428119 7.562721-8.540033 14.051227-12.391469 19.56511" stroke="#000" stroke-linecap="round" stroke-linejoin="round" stroke-width="40"/><path d="m14 348c71.7956254-5 150.642821-9.993147 224.999656-10 75.666295-.00684 155.267839 5.546166 225.000344 10" stroke="#000" stroke-width="15" transform="matrix(1 0 0 -1 0 686)"/><g stroke="#000" stroke-linecap="round" stroke-linejoin="round"><path d="m116 711c10.52084 1.028639 48.324579 4 126 4" stroke-width="40"/><path d="m366 711c-12.428694 1.173526-50.692794 4-126 4" stroke-width="40"/><g stroke-width="20" transform="translate(203.059517 440.994014)"><path d="m0 262.417733c.25817717-159.534059 12.4091948-247.006637 36.453053-262.417733"/><path d="m36.453053 262.417733c.2581771-159.534059 12.4091948-247.006637 36.4530529-262.417733" transform="matrix(-1 0 0 1 109.359158 0)"/></g><path d="m345 715c-1.358274 8.226451-2.353435 46.212201-3.350408 56.123397-.633861 10.938683-1.266817 22.530883-1.629929 33.470502-.241471 8.414372-.241471 21.596576 0 39.546613l-39.026824 41.324851-25.445899 22.905791-.633861.373972c-4.61813 4.112758-9.235355 8.227386-33.412626 9.254874h-.363112c-23.815065-1.027488-28.43229-5.142116-33.051326-9.254874l-.633861-.373972-25.444993-22.905791-38.665523-41.324851h-.361301c.240867-17.950037.240867-31.132241 0-39.546613-.272561-10.939619-.996973-22.531819-1.630834-33.470502-.996068-9.911196-1.991229-47.896946-3.349503-56.123397" stroke-width="40"/></g><path d="m142.102225 821c-7.747032 38 25.343687 57 99.272158 57s105.434816-19 94.519034-57c-29.866079 6.046899-61.327334 9.070348-94.383766 9.070348-33.056431 0-66.19224-3.023449-99.407426-9.070348z" fill="#000"/><path d="m141 750c29.543073 4 72.209739 6 128 6" stroke="#000" stroke-linecap="round" stroke-linejoin="round" stroke-width="20"/><path d="m141 777c29.543073 4.666667 72.209739 7 128 7" stroke="#000" stroke-linecap="round" stroke-linejoin="round" stroke-width="20"/><path d="m141 806c29.543073 4 72.209739 6 128 6" stroke="#000" stroke-linecap="round" stroke-linejoin="round" stroke-width="20"/></g></svg>
