<?xml version="1.0" encoding="UTF-8"?>
<svg width="960px" height="960px" viewBox="0 0 960 960" version="1.1" xmlns="http://www.w3.org/2000/svg" xmlns:xlink="http://www.w3.org/1999/xlink">
    <style type="text/css">
    .pair {
        animation: pairing 11s infinite;
    }

    @keyframes pairing {
        0%, 5%, 15%, 25%, 35%, 45%, 55%, 100% {
            fill: rgba(255,255,255,0);
        }
        10%, 20%, 30%, 40%, 50% {
            fill: #FFF67A;
        }
    }
    </style>
    <title>com.sengled/driver/a19rgb/pair/assets/image</title>
    <g id="com.sengled/driver/a19rgb/pair/assets/image" stroke="none" stroke-width="1" fill="none" fill-rule="evenodd">
        <path d="M258.789918,359.402068 L258.416,358.612 L258.363967,358.488286 C253.198359,346.366544 248.988142,333.736726 245.828724,320.693219 C244.047678,313.046254 242.656441,305.852369 241.672186,299.375862 L241.51265,298.313331 L241.51265,298.313331 C239.857581,286.851612 239,275.130071 239,263.207216 C239,129.439349 346.899348,21 480.000313,21 C613.100026,21 721,129.439349 721,263.207216 C721,296.490413 714.319342,328.20586 702.233617,357.073198 L701.635,358.488 L701.346247,359.104238 L701.346247,359.104238 L667.508462,361.278309 L667.508462,361.278309 L654.904553,362.076907 L654.904553,362.076907 L645.362394,362.671182 L645.362394,362.671182 L638.962159,363.063361 L638.962159,363.063361 L632.533185,363.451226 L632.533185,363.451226 L626.077444,363.833828 L626.077444,363.833828 L619.596904,364.210218 L619.596904,364.210218 L613.093535,364.579445 C612.007848,364.640333 610.921291,364.700883 609.833906,364.761075 L603.299989,365.117777 C602.209456,365.176459 601.118177,365.234743 600.026193,365.29261 L593.466159,365.634649 C555.153781,367.598826 516.078405,369.000038 477.999656,369.000038 C427.603866,368.995365 375.145414,366.700242 324.217642,363.664902 L316.395161,363.192295 C315.093589,363.112624 313.793144,363.032518 312.493887,362.952004 L304.713087,362.46423 C303.418825,362.382187 302.125872,362.299789 300.834289,362.21706 L293.101712,361.716941 L293.101712,361.716941 L285.404919,361.210159 L285.404919,361.210159 L273.933184,360.440238 L273.933184,360.440238 L266.338571,359.922289 L266.338571,359.922289 L258.789918,359.402068 L258.789918,359.402068 Z" class="pair" fill="#FFF67A"></path>
        <path d="M361.766373,743 C357.914937,737.486117 353.803649,730.997611 349.374904,723.43489 C347.158966,719.66042 344.676289,714.578102 344.624319,710.012534 C343.928669,654.881216 342.559909,598.487775 331.253554,544.606054 C318.178958,482.297231 266.919351,376.817512 259.784394,361.521701 C253.212348,347.432647 265.903304,375.608802 259.622008,361.387701 C253.878719,348.384667 249.240895,334.780206 245.828724,320.693219 C243.953939,312.643782 242.511075,305.096373 241.520162,298.359256 L241.514528,298.324025 C241.513902,298.32088 241.513902,298.317105 241.51265,298.313331 C239.857581,286.851612 239,275.130071 239,263.207216 C239,129.439349 346.899348,21 480.000313,21 C613.100026,21 721,129.439349 721,263.207216 C721,298.208899 713.611657,331.47676 700.318525,361.521701 C690.257498,384.261484 710.726591,338.986432 700.215606,361.521701 C693.081275,376.817512 641.821042,482.297231 628.746446,544.606054 C617.440091,598.487775 616.071331,654.881216 615.375681,710.012534 C615.323711,714.578102 612.841034,719.66042 610.625096,723.43489 C606.196977,730.997611 602.085063,737.486117 598.233627,743" id="Stroke-1" stroke="#000000" stroke-width="40" stroke-linecap="round" stroke-linejoin="round"></path>
        <path d="M253,369 C324.795625,364 403.642821,359.006853 477.999656,359 C553.665951,358.99316 633.267495,364.546166 703,369" id="Stroke-7" stroke="#000000" stroke-width="15" transform="translate(478.000000, 364.000000) scale(1, -1) translate(-478.000000, -364.000000) "></path>
        <path d="M355,732 C365.52084,733.028639 403.324579,736 481,736" id="Stroke-9" stroke="#000000" stroke-width="40" stroke-linecap="round" stroke-linejoin="round"></path>
        <path d="M605,732 C592.571306,733.173526 554.307206,736 479,736" id="Stroke-15" stroke="#000000" stroke-width="40" stroke-linecap="round" stroke-linejoin="round"></path>
        <g id="Group" transform="translate(442.059517, 461.994014)" stroke="#000000" stroke-linecap="round" stroke-linejoin="round" stroke-width="20">
            <path d="M-1.42108547e-14,262.417733 C0.258177174,102.883674 12.4091948,15.411096 36.453053,0" id="Path-5"></path>
            <path d="M36.453053,262.417733 C36.7112301,102.883674 48.8622478,15.411096 72.9061059,0" id="Path-5" transform="translate(54.679579, 131.208866) scale(-1, 1) translate(-54.679579, -131.208866) "></path>
        </g>
        <path d="M584,736 C582.641726,744.226451 581.646565,782.212201 580.649592,792.123397 C580.015731,803.06208 579.382775,814.65428 579.019663,825.593899 C578.778192,834.008271 578.778192,847.190475 579.019663,865.140512 L539.992839,906.465363 L514.54694,929.371154 L513.913079,929.745126 C509.294949,933.857884 504.677724,937.972512 480.500453,939 L480.137341,939 C456.322276,937.972512 451.705051,933.857884 447.086015,929.745126 L446.452154,929.371154 L421.007161,906.465363 L382.341638,865.140512 L381.980337,865.140512 C382.221204,847.190475 382.221204,834.008271 381.980337,825.593899 C381.707776,814.65428 380.983364,803.06208 380.349503,792.123397 C379.353435,782.212201 378.358274,744.226451 377,736" id="Path" stroke="#000000" stroke-width="40" stroke-linecap="round" stroke-linejoin="round"></path>
        <path d="M381.102225,842 C373.355193,880 406.445912,899 480.374383,899 C554.302854,899 585.809199,880 574.893417,842 C545.027338,848.046899 513.566083,851.070348 480.509651,851.070348 C447.45322,851.070348 414.317411,848.046899 381.102225,842 Z" id="Path-9" fill="#000000"></path>
        <path d="M380,771 C409.543073,775 452.209739,777 508,777" id="Path-10" stroke="#000000" stroke-width="20" stroke-linecap="round" stroke-linejoin="round"></path>
        <path d="M380,798 C409.543073,802.666667 452.209739,805 508,805" id="Path-10" stroke="#000000" stroke-width="20" stroke-linecap="round" stroke-linejoin="round"></path>
        <path d="M380,827 C409.543073,831 452.209739,833 508,833" id="Path-10" stroke="#000000" stroke-width="20" stroke-linecap="round" stroke-linejoin="round"></path>
    </g>
</svg>