<svg height="960" viewBox="0 0 960 960" width="960" xmlns="http://www.w3.org/2000/svg"><g fill="none" fill-rule="evenodd"><g stroke="#000" stroke-linecap="round" stroke-linejoin="round"><path d="m243.545046 47.6167366c10.556804-2.2386997 21.36735-3.0431433 32.139227-2.3915717l550.041215 33.2710139c25.825875 1.5621612 49.213386 12.9252323 66.139868 30.0530232 17.279655 17.485165 27.77834 40.893299 27.77834 65.929737v611.041388c0 25.036438-10.498685 48.444573-27.77834 65.929737-16.926482 17.127791-40.313993 28.490863-66.139868 30.053024l-550.041215 33.271014c-10.771877.651571-21.582423-.152872-32.139227-2.391572l-156.0090037-33.083623c-15.3294714-3.250802-28.4764442-11.64293-37.7910491-23.139948-9.314605-11.497019-14.7968421-26.098929-14.7968421-41.769296v-668.780059c0-15.670367 5.4822371-30.272277 14.7968421-41.769296 9.3146049-11.4970189 22.4615777-19.8891464 37.7910491-23.1399488z" stroke-width="40"/><path d="m310.393208 52.0006728c1.306943 0 2.613589.0394822 3.918147.1183926l511.139467 30.9179165c24.670297 1.4922623 47.010134 12.3488135 63.178874 28.7098501 16.441581 16.637124 26.464898 38.900989 26.464898 62.732107v611.041388c0 23.831118-10.023317 46.094983-26.464898 62.732107-16.16874 16.361037-38.508577 27.217588-63.178874 28.709851l-511.139467 30.917916c-17.887226 1.081967-34.519624-5.188728-46.950707-16.20172-12.431082-11.012992-20.66085-26.768283-21.742817-44.65551-.07891-1.304558-.118392-2.611203-.118392-3.918147v-726.210382c0-17.9199193 7.263482-34.1433617 19.006945-45.8868242 11.743462-11.7434625 27.966905-19.006945 45.886824-19.006945z" stroke-width="20"/><path d="m310.388086 101.443545.51365.00817 511.563831 30.937935c12.110652.732552 23.063622 6.083885 30.996682 14.111294 7.145399 7.23038 11.944416 16.754447 12.180271 27.167098l.009202 611.852285c0 10.730846-4.856665 20.557978-12.189473 27.977996-7.74295 7.835038-18.363205 13.121008-30.128571 14.050743l-512.033751 30.985788c-4.251611.243832-8.201758-1.250682-11.152566-3.864873-2.932566-2.59803-4.877494-6.305783-5.169796-10.51211l-.035254-727.263429c0-4.266647 1.7294-8.129372 4.525463-10.925434 2.906741-2.906741 6.966261-4.660704 11.433962-4.517293z" stroke-width="20"/><path d="m45.51354 197.448972 199.985899-30.540847v207.98645l-199.985899 14.557384z" stroke-width="20"/></g><path d="m252.950336 167.246585 35 1.318346v208.329644l-35-1.661541z" fill="#000"/><path d="m245.499439 165.137101 49.442872 2.711536v207.045938l-49.442872-3.054731z" stroke="#000" stroke-linejoin="round" stroke-width="20"/><g transform="translate(349.129041 189.202525)"><path d="m195.888126 586.340711c128.866306 18.110978 251.721503-98.047536 274.404761-259.447304s-63.395111-306.9219806-192.261417-325.03295889c-128.866307-18.11097831-251.7215036 98.04753639-274.40476172 259.44730389-22.68325808 161.399768 63.39511042 306.921981 192.26141772 325.032959z" stroke="#000" stroke-linecap="round" stroke-linejoin="round" stroke-width="20"/><g fill="#000"><path d="m170.125835 166.640826 32.1543 1.581296v126.445773l-32.1543-.064049z"/><path d="m292.895057 172.678416 29.356705 1.581297v120.652731l-29.356705-.064049v-57.036963z"/><path d="m282.367868 427.85072v-53.664662c0-19.140302-15.31094-34.423799-34.197941-34.136647-18.887002.287151-34.197942 16.444447-34.197942 36.088329v55.076578z"/></g></g></g></svg>