<?xml version="1.0" encoding="UTF-8"?>
<svg width="960px" height="960px" viewBox="0 0 960 960" version="1.1" xmlns="http://www.w3.org/2000/svg" xmlns:xlink="http://www.w3.org/1999/xlink">
    <style type="text/css">
    .button {
        animation: button 15s infinite;
    }
    .pair {
        animation: pairing 15s infinite;
    }

     @keyframes button {
        0%, 5%, 95%, 100% {
            fill: rgba(255,255,255,0);
        }
        10%, 90% {
            fill: #0078CC;
        }
    }

    @keyframes pairing {
        0%, 60%, 80%, 86%, 93%, 100% {
            fill: rgba(255,255,255,0);
        }
        63%, 75%, 83%, 90%, 96% {
            fill: #0078CC;
        }
    }
    </style>
    <title>com.sengled/driver/plug/pair/image</title>
    <g id="com.sengled/driver/plug/pair/image" stroke="none" stroke-width="1" fill="none" fill-rule="evenodd">
        <polygon class="button" fill="#0074CC" points="45.51354 197.448972 245.499439 166.908125 245.499439 374.894575 45.51354 389.451959"></polygon>
        <path d="M243.545046,47.6167366 C254.10185,45.3780369 264.912396,44.5735933 275.684273,45.2251649 L275.684273,45.2251649 L825.725488,78.4961788 C851.551363,80.05834 874.938874,91.4214111 891.865356,108.549202 C909.145011,126.034367 919.643696,149.442501 919.643696,174.478939 L919.643696,174.478939 L919.643696,785.520327 C919.643696,810.556765 909.145011,833.9649 891.865356,851.450064 C874.938874,868.577855 851.551363,879.940927 825.725488,881.503088 L825.725488,881.503088 L275.684273,914.774102 C264.912396,915.425673 254.10185,914.62123 243.545046,912.38253 L243.545046,912.38253 L87.5360423,879.298907 C72.2065709,876.048105 59.0595981,867.655977 49.7449932,856.158959 C40.4303882,844.66194 34.9481511,830.06003 34.9481511,814.389663 L34.9481511,814.389663 L34.9481511,145.609604 C34.9481511,129.939237 40.4303882,115.337327 49.7449932,103.840308 C59.0595981,92.3432891 72.2065709,83.9511616 87.5360423,80.7003592 L87.5360423,80.7003592 Z" id="Path" stroke="#000000" stroke-width="40" stroke-linecap="round" stroke-linejoin="round"></path>
        <path d="M310.393208,52.0006728 C311.700151,52.0006728 313.006797,52.040155 314.311355,52.1190654 L314.311355,52.1190654 L825.450822,83.0369819 C850.121119,84.5292442 872.460956,95.3857954 888.629696,111.746832 C905.071277,128.383956 915.094594,150.647821 915.094594,174.478939 L915.094594,174.478939 L915.094594,785.520327 C915.094594,809.351445 905.071277,831.61531 888.629696,848.252434 C872.460956,864.613471 850.121119,875.470022 825.450822,876.962285 L825.450822,876.962285 L314.311355,907.880201 C296.424129,908.962168 279.791731,902.691473 267.360648,891.678481 C254.929566,880.665489 246.699798,864.910198 245.617831,847.022971 C245.538921,845.718413 245.499439,844.411768 245.499439,843.104824 L245.499439,843.104824 L245.499439,116.894442 C245.499439,98.9745227 252.762921,82.7510803 264.506384,71.0076178 C276.249846,59.2641553 292.473289,52.0006728 310.393208,52.0006728 Z" id="Rectangle" stroke="#000000" stroke-width="20" stroke-linecap="round" stroke-linejoin="round"></path>
        <path d="M310.388086,101.443545 L310.901736,101.451715 L822.465567,132.38965 C834.576219,133.122202 845.529189,138.473535 853.462249,146.500944 C860.607648,153.731324 865.406665,163.255391 865.64252,173.668042 L865.64252,173.668042 L865.651722,785.520327 C865.651722,796.251173 860.795057,806.078305 853.462249,813.498323 C845.719299,821.333361 835.099044,826.619331 823.333678,827.549066 L823.333678,827.549066 L311.299927,858.534854 C307.048316,858.778686 303.098169,857.284172 300.147361,854.669981 C297.214795,852.071951 295.269867,848.364198 294.977565,844.157871 L294.977565,844.157871 L294.942311,116.894442 C294.942311,112.627795 296.671711,108.76507 299.467774,105.969008 C302.374515,103.062267 306.434035,101.308304 310.901736,101.451715 L310.388086,101.443545 Z" id="Rectangle" stroke="#000000" stroke-width="20" stroke-linecap="round" stroke-linejoin="round"></path>
        <polygon id="Path-11" stroke="#000000" stroke-width="20" stroke-linecap="round" stroke-linejoin="round" points="45.51354 197.448972 245.499439 166.908125 245.499439 374.894575 45.51354 389.451959"></polygon>
        <polygon id="Path-13" fill="#000000" points="252.950336 167.246585 287.950336 168.564931 287.950336 376.894575 252.950336 375.233034"></polygon>
        <polygon class="pair" fill="#0074CC" points="252.950336 167.246585 287.950336 168.564931 287.950336 376.894575 252.950336 375.233034"></polygon>
        <polygon id="Path-13" stroke="#000000" stroke-width="20" stroke-linejoin="round" points="245.499439 165.137101 294.942311 167.848637 294.942311 374.894575 245.499439 371.839844"></polygon>
        <g id="Group" transform="translate(349.129041, 189.202525)">
            <path d="M195.888126,586.340711 C324.754432,604.451689 447.609629,488.293175 470.292887,326.893407 C492.976145,165.493639 406.897776,19.9714264 278.03147,1.86044811 C149.165163,-16.2505302 26.3099664,99.9079845 3.62670828,261.307752 C-19.0565498,422.70752 67.0218187,568.229733 195.888126,586.340711 Z" id="Oval" stroke="#000000" stroke-width="20" stroke-linecap="round" stroke-linejoin="round"></path>
            <polygon id="Path-15" fill="#000000" points="170.125835 166.640826 202.280135 168.222122 202.280135 294.667895 170.125835 294.603846"></polygon>
            <polygon id="Path-15" fill="#000000" points="292.895057 172.678416 322.251762 174.259713 322.251762 294.912444 292.895057 294.848395 292.895057 237.811432"></polygon>
            <path d="M282.367868,427.85072 L282.367868,374.186058 C282.367868,355.045756 267.056928,339.762259 248.169927,340.049411 C229.282925,340.336562 213.971985,356.493858 213.971985,376.13774 L213.971985,431.214318 L282.367868,427.85072 Z" id="Path-16" fill="#000000"></path>
        </g>
    </g>
    
</svg>