<svg height="960" viewBox="0 0 960 960" width="960" xmlns="http://www.w3.org/2000/svg"><g fill="none" fill-rule="evenodd"><g stroke="#000"><path d="m308 262.084739c1.670557 0 3.341028.023921 5.010899.071755l455 13.033683c94.659611 2.711567 169.989101 80.229805 169.989101 174.928245v43.981347c0 93.022724-72.775562 169.789256-165.66587 174.750891l-455 24.303332c-18.692804.998456-36.856875-.974684-54.033256-5.507006l-72.241392-12.784681c-59.103302-9.975743-91.7882535-26.43243-125.5409909-67.407019-18.3707728-22.301447-32.005191-55.635056-40.9032544-100.000826-1.2863636-6.413813-2.9822773-14.138016-3.4951879-31.277894-.5129107-17.139878.7203251-26.219916 1.7592538-33.310268 6.2839717-42.886073 19.6537444-74.860051 40.1093179-95.921932 39.0010615-40.157062 68.9675595-57.830928 128.0708615-67.806671l78.263759-12.764521c12.442129-2.806909 25.38643-4.288435 38.676759-4.288435z" stroke-linecap="round" stroke-linejoin="round" stroke-width="40"/><path d="m339.46064 273.444376c1.871812 0 3.743528.026813 5.614572.080433l402.866494 11.545161c50.167302 1.437671 95.212202 22.697991 127.715277 56.145868s52.464324 79.08331 52.464324 129.271208c0 50.601813-19.793653 96.782315-52.219738 130.987396-32.426084 34.205082-77.484599 56.434742-128.01432 59.134871l-397.967988 21.265993c-54.046797 2.888068-104.147609-16.404069-141.458739-49.929923-37.311129-33.525853-61.832577-81.285423-64.720646-135.332219-.186124-3.483102-.279236-6.970551-.279236-10.458622v-16.710166c0-54.123906 21.938047-103.123906 57.40707-138.59293 35.469024-35.469023 84.469024-57.40707 138.59293-57.40707z" stroke-width="20"/><path d="m344.690468 324.291812c1.3273 0 2.654531.019013 3.981286.057035l409.03317 11.721883c36.3683 1.042225 69.023165 16.454689 92.585955 40.702404s35.992636 57.36945 35.992636 93.713912c0 37.058056-12.392651 70.908944-36.078298 95.940129-23.665553 25.00995-56.559422 41.242285-93.447996 43.213479l-404.650558 21.623086c-38.324516 2.047926-73.85094-11.632105-100.308216-35.405246s-43.845404-57.639393-45.89333-95.96391c-.131981-2.469862-.198006-4.942808-.198006-7.416195v-29.20322c0-38.379194 15.556242-73.125034 40.707283-98.276074 25.15104-25.151041 59.89688-40.707283 98.276074-40.707283z" stroke-width="20"/></g><path d="m521.053101 370.798735 24.219285.667325v95.748247l-24.219285-.031175z" fill="#000"/><path d="m613.525422 373.414846 22.112078.759174v93.165437l-22.112078-.034534v-43.834049z" fill="#000"/><path d="m605.596125 569.350743v-41.171967c0-14.684595-11.532517-26.488133-25.758597-26.365163-14.226081.121618-25.758598 12.300903-25.758598 27.204417v41.78576z" fill="#000"/><path d="m780.205817 424.800389 2.594235.093904c22.565912.816818 40.859198 19.519514 40.859198 41.773641v15.350347c0 22.254126-18.293286 40.956822-40.859198 41.77364l-2.594235.093904c-22.565911.816818-40.859197-17.709302-40.859197-41.379246v-16.326944c0-23.669944 18.293286-42.196064 40.859197-41.379246z" stroke="#000" stroke-linecap="round" stroke-linejoin="round" stroke-width="20"/><path d="m843.872505 450.714981 20.104575.363445v40.111519l-20.104575.263184z" fill="#000"/></g></svg>