<?xml version="1.0" encoding="UTF-8"?>
<svg width="960px" height="960px" viewBox="0 0 960 960" version="1.1" xmlns="http://www.w3.org/2000/svg" xmlns:xlink="http://www.w3.org/1999/xlink">
    <title>com.sengled/driver/E1C-NB7/pair/image</title>
    <style type="text/css">
#pair-led {
	animation: flash 11s infinite;
}
#pair-button {
	animation: press 11s infinite;
}

@keyframes press {
	0%,  60%, 100% {
		fill: rgba(0,0,0,0);
	}
	10%, 30%, 50% {
		fill: #0078CC;
	}
}

@keyframes flash {
	0%, 60%, 68%, 76%, 84%, 92%, 100% {
		fill: rgba(0,0,0,0);
	}
	64%, 72%, 80%, 88%, 96% {
		fill: #0078CC;
	}
}
</style>
    <g id="com.sengled/driver/E1C-NB7/pair/image" stroke="none" stroke-width="1" fill="none" fill-rule="evenodd">
        <path d="M308,262.084739 C309.670557,262.084739 311.341028,262.10866 313.010899,262.156494 L768.010899,275.190177 C862.67051,277.901744 938,355.419982 938,450.118422 L938,494.099769 C938,587.122493 865.224438,663.889025 772.33413,668.85066 L317.33413,693.153992 C298.641326,694.152448 280.477255,692.179308 263.300874,687.646986 L191.059482,674.862305 C131.95618,664.886562 99.2712285,648.429875 65.5184911,607.455286 C47.1477183,585.153839 33.5133001,551.82023 24.6152367,507.45446 C23.3288731,501.040647 21.6329594,493.316444 21.1200488,476.176566 C20.6071381,459.036688 21.8403739,449.95665 22.8793026,442.866298 C29.1632743,399.980225 42.533047,368.006247 62.9886205,346.944366 C101.989682,306.787304 131.95618,289.113438 191.059482,279.137695 L269.323241,266.373174 C281.76537,263.566265 294.709671,262.084739 308,262.084739 Z" id="Combined-Shape" stroke="#000000" stroke-width="40" stroke-linecap="round" stroke-linejoin="round"></path>
        <path d="M339.46064,273.444376 C341.332452,273.444376 343.204168,273.471189 345.075212,273.524809 L345.075212,273.524809 L747.941706,285.06997 C798.109008,286.507641 843.153908,307.767961 875.656983,341.215838 C908.160058,374.663715 928.121307,420.299148 928.121307,470.487046 C928.121307,521.088859 908.327654,567.269361 875.901569,601.474442 C843.475485,635.679524 798.41697,657.909184 747.887249,660.609313 L747.887249,660.609313 L349.919261,681.875306 C295.872464,684.763374 245.771652,665.471237 208.460522,631.945383 C171.149393,598.41953 146.627945,550.65996 143.739876,496.613164 C143.553752,493.130062 143.46064,489.642613 143.46064,486.154542 L143.46064,486.154542 L143.46064,469.444376 C143.46064,415.32047 165.398687,366.32047 200.86771,330.851446 C236.336734,295.382423 285.336734,273.444376 339.46064,273.444376 Z" id="Path-474" stroke="#000000" stroke-width="20"></path>
        <path d="M344.690468,324.291812 C346.017768,324.291812 347.344999,324.310825 348.671754,324.348847 L348.671754,324.348847 L757.704924,336.07073 C794.073224,337.112955 826.728089,352.525419 850.290879,376.773134 C873.853669,401.020849 886.283515,434.142584 886.283515,470.487046 C886.283515,507.545102 873.890864,541.39599 850.205217,566.427175 C826.539664,591.437125 793.645795,607.66946 756.757221,609.640654 L756.757221,609.640654 L352.106663,631.26374 C313.782147,633.311666 278.255723,619.631635 251.798447,595.858494 C225.341171,572.085353 207.953043,538.219101 205.905117,499.894584 C205.773136,497.424722 205.707111,494.951776 205.707111,492.478389 L205.707111,492.478389 L205.707111,463.275169 C205.707111,424.895975 221.263353,390.150135 246.414394,364.999095 C271.565434,339.848054 306.311274,324.291812 344.690468,324.291812 Z" id="Path-474" stroke="#000000" stroke-width="20"></path>
        <polygon id="Path-15" fill="#000000" points="521.053101 370.798735 545.272386 371.46606 545.272386 467.214307 521.053101 467.183132"></polygon>
        <path d="M780.205817,424.800389 L782.800052,424.894293 C805.365964,425.711111 823.65925,444.413807 823.65925,466.667934 L823.65925,482.018281 C823.65925,504.272407 805.365964,522.975103 782.800052,523.791921 L780.205817,523.885825 C757.639906,524.702643 739.34662,506.176523 739.34662,482.506579 L739.34662,466.179635 C739.34662,442.509691 757.639906,423.983571 780.205817,424.800389 Z" id="pair-button" fill="#0074CC"></path>
        <polygon id="Path-15" fill="#000000" points="613.525422 373.414846 635.6375 374.17402 635.6375 467.339457 613.525422 467.304923 613.525422 423.470874"></polygon>
        <path d="M605.596125,569.350743 L605.596125,528.178776 C605.596125,513.494181 594.063608,501.690643 579.837528,501.813613 C565.611447,501.935231 554.07893,514.114516 554.07893,529.01803 L554.07893,570.80379 L605.596125,569.350743 Z" id="Path-16" fill="#000000"></path>
        <path d="M780.205817,424.800389 L782.800052,424.894293 C805.365964,425.711111 823.65925,444.413807 823.65925,466.667934 L823.65925,482.018281 C823.65925,504.272407 805.365964,522.975103 782.800052,523.791921 L780.205817,523.885825 C757.639906,524.702643 739.34662,506.176523 739.34662,482.506579 L739.34662,466.179635 C739.34662,442.509691 757.639906,423.983571 780.205817,424.800389 Z" id="Rectangle" stroke="#000000" stroke-width="20" stroke-linecap="round" stroke-linejoin="round"></path>
        <polygon id="Rectangle" fill="#000000" points="843.872505 450.714981 863.97708 451.078426 863.97708 491.189945 843.872505 491.453129"></polygon>
        <polygon id="pair-led" fill="#0074CC" points="843.872505 450.714981 863.97708 451.078426 863.97708 491.189945 843.872505 491.453129"></polygon>
    </g>
</svg>