<?xml version="1.0" encoding="UTF-8"?>
<svg id="layer" width="500" height="500" version="1.1" viewBox="0 0 500 500" xml:space="preserve"
     xmlns="http://www.w3.org/2000/svg">
<path class="st3"
      d="m191.74 216.55c-8.8 0-17 3.4-23.2 9.5-6.2 6.2-9.6 14.4-9.6 23.1l-0.1 37.2c0 1.4 1.1 2.6 2.6 2.6h5.2c1.4 0 2.5-1.1 2.6-2.4l0.1-37.3c0-6 2.3-11.6 6.6-15.9 4.3-4.2 9.9-6.6 15.9-6.6s11.6 2.4 15.8 6.6c4.2 4.3 6.5 9.9 6.5 15.9l-0.1 37.3c0 1.4 1.1 2.6 2.6 2.6h5.2c1.4 0 2.5-1.1 2.6-2.4l0.1-37.5c0-8.7-3.4-17-9.6-23.2-6.3-6-14.5-9.4-23.2-9.5m-132.7 35.2c-5.5-2.7-12.3-3.9-18.4-4.9-16.4-2.8-19.5-5.8-19.5-10.4 0-2.4 0.8-4.4 2.2-5.8 3.2-3.2 9.1-4.9 16.1-4.9h0.5c7 0 12.6 1.1 19.2 6.3 0.1 0.1 0.2 0.2 0.4 0.3 0.4 0.3 0.9 0.4 1.4 0.4 0.7 0 1.3-0.3 1.8-0.7l0.3-0.4v-0.1l3.1-3.5 0.2-0.2c0.4-0.4 0.6-1 0.6-1.6 0-0.8-0.4-1.5-0.9-2-0.1 0-0.1-0.1-0.2-0.1-9-7.2-16.9-8.8-25.9-8.8h-0.5c-9.9 0-18.2 2.7-23.4 7.9-3.4 3.3-5.2 8-5.3 13.1-0.1 15.9 17.6 18.9 28.2 20.6 14.3 2.4 20.7 4.7 20.7 11.7 0 8.1-10.5 11-19.5 11-7.4 0-17-2.6-22.8-9.7-0.1-0.1-0.2-0.2-0.3-0.4-0.5-0.5-1.1-0.8-1.8-0.8-0.4 0-0.8 0.1-1.1 0.3-0.2 0.1-0.3 0.2-0.5 0.3l-4 2.6-0.1 0.1c-0.6 0.5-1.1 1.2-1.1 2.1 0 0.4 0.1 0.8 0.3 1.2 0.2 0.2 0.3 0.4 0.5 0.6 8 10.1 21 13.8 31.1 13.8 18.1 0.1 29.8-8.3 29.9-21.2-0.2-5.1-2.1-12.3-11.2-16.8m91 1.5c0-9.9-3.8-19.2-10.8-26.1-7-7-16.2-10.8-26.1-10.8-20.3 0-36.9 16.5-37 36.9 0 9.9 3.8 19.1 10.8 26.1s16.2 10.8 26 10.9h0.1c10.9 0 21.2-4.8 28.3-13.1 0.2-0.2 0.4-0.5 0.6-0.7 0.1-0.1 0.2-0.2 0.3-0.4 0.3-0.4 0.4-0.9 0.4-1.4 0-0.9-0.4-1.6-1.1-2.1-0.1 0-0.1-0.1-0.2-0.1l-4-2.7-0.4-0.3c-0.4-0.2-0.8-0.3-1.2-0.3-0.8 0-1.5 0.3-1.9 0.9l-0.1 0.1c-0.1 0.1-0.2 0.2-0.2 0.3-5.1 6-12.5 9.5-20.4 9.5h-0.1c-7.1 0-13.7-2.8-18.8-7.8-3.8-3.8-6.3-8.6-7.3-13.8l60.5 0.2c1.4 0 2.5-1.1 2.6-2.4v-0.2zm-63.1-5.3c2.5-12.2 13.3-21.3 26.1-21.3 7.1 0 13.7 2.8 18.8 7.8 3.8 3.8 6.3 8.5 7.3 13.7zm201.7 38.6c0.1-0.1 0.3-0.2 0.4-0.3 2.4-1.9 4.7-3.9 7-6.2 14.4-14.3 14.5-37.7 0.2-52.2-7-7.1-16.2-10.9-26.1-11-9.9 0-19.2 3.8-26.2 10.8-14.4 14.3-14.4 37.7-0.1 52.2 2.3 2.3 4.6 4.4 7 6.3 0.1 0.1 0.3 0.2 0.4 0.3 2.7 2.1 5.4 4 8.2 5.7-3.8 2.2-7.8 4.9-11.3 8.3-0.1 0.1-0.3 0.2-0.4 0.4-0.3 0.3-0.7 0.6-1 1-12.8 12.7-12.8 33.5-0.1 46.3 6.2 6.2 14.3 9.6 23.1 9.6h0.2c8.7 0 16.9-3.3 23.1-9.4 12.8-12.7 12.9-33.5 0.3-46.3l-1-1c-0.1-0.1-0.3-0.2-0.4-0.4-3.5-3.4-7.5-6.1-11.2-8.3 2.5-1.9 5.2-3.7 7.9-5.8zm-4.4 21.1 0.6 0.6c2.6 2.5 4.7 5.5 5.9 8.9 1.8 5.2 1.8 11-0.2 15.6-1.1 2.9-2.8 5.6-5.2 8-4.2 4.2-9.9 6.5-15.8 6.6-6-0.1-11.6-2.4-15.8-6.7-2.3-2.4-4-5.1-5.1-8-1.9-4.6-1.9-10.5-0.1-15.6 1.2-3.4 3.4-6.3 6-8.8 0.2-0.2 0.4-0.4 0.7-0.6 1.8-1.6 3.5-2.9 5.1-4.1 2.9-2 5.9-3.6 8.6-5 0.2-0.1 0.5-0.2 0.7-0.4 0.2 0.1 0.5 0.3 0.7 0.4 2.6 1.4 5.7 3.1 8.6 5.1 1.8 1.1 3.5 2.5 5.3 4m-14.3-21.2c-4.2-2.3-8.4-5-12.4-8.2-2-1.6-4.1-3.5-6.3-5.7-4.9-5-7.6-11.7-7.6-18.8 0-7.2 2.8-13.8 7.8-18.8s11.7-7.7 18.7-7.7c7.1 0 13.7 2.8 18.7 7.8s7.7 11.7 7.7 18.9-2.8 13.8-7.8 18.8c-2.2 2.2-4.3 4.1-6.4 5.7-4 3.1-8.2 5.7-12.4 8m219.2-95.7h-5.2c-1.4 0-2.5 1.1-2.6 2.4l-0.1 35.7-0.6-0.6c-6.9-6.9-16.2-10.8-26-10.8-9.9 0-19.2 3.8-26.2 10.8s-10.8 16.2-10.9 26.1c0 9.9 3.8 19.1 10.8 26.1 6.9 7 16.2 10.8 26 10.9 9.9 0 19.2-3.8 26.2-10.8s10.8-16.2 10.8-26l0.2-61.2c0.2-1.4-1-2.5-2.4-2.6m-8 63.8c0 7.1-2.8 13.8-7.8 18.8-2.5 2.5-5.5 4.5-8.7 5.8s-6.7 2-10.2 2c-7.1 0-13.8-2.8-18.8-7.8s-7.8-11.7-7.8-18.8 2.8-13.8 7.8-18.8c5.1-5.1 11.8-7.8 18.9-7.8s13.7 2.8 18.8 7.8c5.1 4.9 7.9 11.6 7.8 18.8zm-71.4-0.3c0-9.9-3.8-19.2-10.8-26.1-7-7-16.2-10.8-26.1-10.8-20.4 0-37 16.5-37 36.9 0 9.9 3.8 19.1 10.8 26.1s16.2 10.8 26 10.9h0.1c10.9 0 21.3-4.8 28.3-13.1 0.2-0.2 0.4-0.5 0.6-0.7 0.1-0.1 0.2-0.2 0.3-0.4 0.3-0.4 0.4-0.9 0.4-1.4 0-0.9-0.4-1.6-1-2.1-0.1 0-0.1-0.1-0.2-0.1l-4-2.7-0.4-0.3c-0.4-0.2-0.8-0.3-1.2-0.3-0.8 0-1.5 0.3-1.9 0.9-0.1 0-0.1 0.1-0.1 0.1-0.1 0.1-0.1 0.2-0.2 0.3-5.1 6-12.5 9.5-20.4 9.5h-0.1c-7.1 0-13.7-2.8-18.8-7.8-3.8-3.8-6.3-8.6-7.3-13.8l60.5 0.2c1.4 0 2.5-1.1 2.6-2.4v-2.9zm-63-5.4c2.5-12.2 13.3-21.3 26.1-21.3h0.1c7.1 0 13.7 2.8 18.8 7.8 3.8 3.8 6.3 8.5 7.3 13.7zm-23.2-58.6h-5.2c-1.4 0-2.5 1.1-2.6 2.4l-0.3 94.4c0 1.4 1.1 2.6 2.6 2.6h5.2c1.4 0 2.5-1.1 2.6-2.4l0.3-94.4c0-1.5-1.1-2.6-2.6-2.6"/>
</svg>
