<svg height="960" viewBox="0 0 960 960" width="960" xmlns="http://www.w3.org/2000/svg"><g fill="none" fill-rule="evenodd"><g stroke="#000" stroke-linejoin="round"><path d="m344.68307 77.7390849c14.67689-1.2905959 28.048774-1.0948243 40.118606.4952138 14.988283 1.9745047 31.791708 7.3124917 50.323882 16.3297523 10.112171 4.9203124 17.575026 13.224255 21.595369 22.94343 4.047527 9.78489 4.604389 21.00452.864216 31.654659l-1.452298 4.001378c-1.680769 4.628558-3.33965 9.224315-4.976642 13.787272l-2.44687 6.841714c-37.768751 105.938766-63.549194 193.828274-77.244163 263.693467-18.529356 94.52793-21.980028 200.231321-18.887888 280.724793l.088718 2.257236.46157-.562645c50.418401-62.108902 91.617388-153.011708 120.598765-251.436308l1.029849-3.518327c7.814131-26.855247 15.132513-53.101872 22.081541-78.410791l2.963358-10.815596 2.91984-10.693465 9.925222-36.443058 2.76126-10.108891 2.729882-9.954944c18.101155-65.846412 34.412357-121.247883 51.570465-158.840919 17.76293-38.918192 38.10165-58.6610075 58.449727-62.5728364 39.04211-7.5056748 114.601332 11.8965578 118.767749 14.4566034 9.47314 5.820749 16.91835 14.357651 21.43351 24.350427 4.390188 9.716196 6.025839 20.802088 4.072547 32.105489-8.63783 50.636835-15.094707 87.753154-19.369876 111.349091-2.323469 12.823923-5.155621 28.161702-8.496569 46.01365l-.03384.17752.517706-.613599c53.651414-63.620337 110.584093-123.260708 157.178682-164.698268l1.883272-1.669894c.693122-.612758 1.718582-1.465056 3.090147-2.540667l32.853725-25.764619-1.901716 154.663377c-3.361649 4.424702-5.705072 7.461507-7.022139 9.116809l-49.15757 61.52667c-3.014498 4.102884-60.18407 82.902527-62.667131 86.518753-43.559122 63.437705-101.111852 191.461757-173.130647 383.791779-4.304948 11.49659-11.802335 25.26716-22.733062 41.194543-.204818.298444-.409362.595491-.615074.888418-.261701.313342-.526775.624093-.79519.932191-11.885666 13.642919-29.820753 21.5113-48.938175 20.032987l-1.890463-.150838-1.896629-.163068-1.87053-.172802-1.809867-.179197c-6.927787-.708615-13.17183-1.618818-18.734787-2.713319l-1.502072-.30306-1.474366-.31386c-2.896173-.631948-5.605059-1.319468-8.128107-2.05693l-.628855-.185472-1.246669-.378458-1.285846-.404612-1.255029-.408253c-.462376-.152623-.929857-.309438-1.402437-.470465l-1.245889-.430168c-.248999-.087082-.499383-.175302-.75115-.264664l-1.313244-.471759-1.334095-.491074c-.252839-.0941-.506997-.189286-.762474-.28556l-1.359835-.51779-1.41286-.549378-1.400313-.555393c-.259702-.103945-.520653-.208917-.782852-.314918l-1.399414-.570653c-.263074-.108184-.527372-.217376-.792895-.327577l-1.431179-.598764c-.266664-.112442-.53453-.225873-.803599-.340295l-1.463217-.626896c-.270446-.116717-.542076-.234409-.814889-.353076l-1.519162-.665414-1.563928-.69461-1.583879-.712879-1.582935-.721564c-.282758-.129667-.566653-.26027-.851686-.39181l-1.603732-.74437-.844624-.395422-1.655543-.781566-1.677184-.800339-.85033-.408945c-13.467338-6.490363-23.626697-17.347224-29.401923-30.174657-1.558492-3.461588-2.797746-7.066703-3.696598-10.768322l-.111742-.469283-.517491.664564c-17.84218 22.669478-38.120366 41.161212-60.694005 52.858822l-1.886504.956614-.031959.020832c-10.651532 6.540806-29.62675 12.03845-58.38417 7.111523l-.911383-.159063c-18.73466-3.329546-42.204149-11.166745-70.464405-26.492582-24.170172-13.107742-42.412341-39.113171-54.048437-75.494757-6.758275-21.130521-11.388658-45.844323-14.186263-72.985045l-.065383-.633908-.418796.550315-1.683747 2.190445-.909609 1.173528-1.757947 2.24837c-6.298875 8.00997-12.507121 15.404619-18.620946 22.187142l-1.707358 1.880896c-4.726962 5.170773-9.400584 9.977927-14.018279 14.423986-45.246314 43.564534-80.4860272 71.395994-108.8521747 90.279779-3.9619523 2.637533-15.7003295 10.266342-35.2319628 22.860987l-.1156834-131.247394c4.5968817-5.080123 7.7141631-8.532253 9.3515579-10.356649 53.547189-59.662631 93.14853-113.739307 118.606449-162.360446 17.308834-33.057503 34.168763-69.236607 49.990056-109.676208 8.091022-20.680844 20.320303-59.54979 32.103989-98.737789l1.41161-4.702948c11.271076-37.617535 21.962513-74.870386 28.01881-95.949162 2.342753-8.153885 4.0048-13.936278 4.758872-16.468833l35.042747-117.691177c3.085195-9.828879 8.991659-18.2363204 16.695459-24.4012394 7.64754-6.1198978 17.066298-10.0297594 27.253023-10.9255177z" stroke-width="40"/><path d="m321.778062 106.03598c-48.273504 155.153388-78.329204 282.78955-90.167101 382.908488-18.380128 155.449817-15.345107 320.681847 51.833686 358.060612 67.178792 37.378765 104.688978 28.597911 114.955473 16.974856 10.266495-11.623054-53.665218 8.180476-61.151129-77.88862-7.485912-86.069095-7.826234-228.409924 15.866878-352.422736 15.102305-79.047417 44.596275-180.221535 88.48191-303.522353h.000002c3.622357-10.177351-.831117-21.465852-10.426469-26.428629-17.59639-9.1009659-33.434504-14.60297-47.51434-16.5060127-11.563243-1.5628978-24.458551-1.6137377-38.685924-.1525196v-.0000006c-10.832735 1.1125728-19.957797 8.5788613-23.192986 18.9769149z" stroke-linecap="round" stroke-width="20"/><path d="m650.723167 97.7792391c14.17916-1.0305047 28.23429-.435063 42.16539 1.786325 11.611333 1.8514889 23.266021 3.8355369 34.964064 5.9521429v.000001c16.841318 3.047214 28.084103 19.092694 25.198225 35.962407-18.944933 110.744678-37.65049 213.652746-56.11667 308.724202-16.08451 82.809647-44.517063 213.770447-85.297658 392.882398h-.000001c-3.744383 16.445657-18.859983 27.750888-35.693487 26.695804-16.094013-1.008735-28.969758-2.936207-38.627234-5.782415-9.88519-2.913319-22.82697-8.367436-38.825342-16.362351v-.000001c-15.790101-7.890835-23.753093-25.882152-18.976864-42.875686 39.83927-141.745689 71.571974-267.694102 95.198112-377.845239 27.523571-128.321969 41.988941-248.914141 44.721667-268.82703 1.980426-14.431009 3.592861-26.246592 4.837305-35.446749h-.000001c1.826272-13.501591 12.863789-23.876217 26.452494-24.8638089z" stroke-linecap="round" stroke-width="20"/></g><g fill="#000" transform="translate(247.908612 88.25788)"><ellipse cx="108.591388" cy="84.74212" rx="25.5" ry="23"/><ellipse cx="133.591388" cy="12.74212" rx="27.5" ry="13"/><ellipse cx="86.591388" cy="162.74212" rx="25.5" ry="23"/><ellipse cx="437.591388" cy="75.74212" rx="25.5" ry="23"/><ellipse cx="426.591388" cy="156.74212" rx="25.5" ry="23"/><ellipse cx="412.591388" cy="237.74212" rx="25.5" ry="23"/><ellipse cx="396.591388" cy="318.74212" rx="25.5" ry="23"/><ellipse cx="378.591388" cy="399.74212" rx="25.5" ry="23"/><ellipse cx="357.92554" cy="488.153582" rx="25.72785" ry="23.029888" transform="matrix(.9781476 .20791169 -.20791169 .9781476 109.314368 -63.749577)"/><ellipse cx="336.260438" cy="578.468768" rx="25.727686" ry="23.030035" transform="matrix(.98480775 .17364818 -.17364818 .98480775 105.558599 -49.602772)"/><ellipse cx="314.595336" cy="667.880802" rx="25.727686" ry="23.030035" transform="matrix(.98480775 .17364818 -.17364818 .98480775 120.755694 -44.482297)"/><ellipse cx="64.591388" cy="244.74212" rx="25.5" ry="23"/><ellipse cx="43.591388" cy="332.74212" rx="25.5" ry="23"/><ellipse cx="31.591388" cy="418.74212" rx="25.5" ry="23"/><ellipse cx="26.591388" cy="501.74212" rx="25.5" ry="23"/><ellipse cx="28.591388" cy="587.74212" rx="25.5" ry="23"/><ellipse cx="35.591388" cy="674.24212" rx="25.5" ry="21.5"/></g></g></svg>