<?xml version="1.0" encoding="UTF-8"?>
<svg width="960px" height="960px" viewBox="0 0 960 960" version="1.1" xmlns="http://www.w3.org/2000/svg" xmlns:xlink="http://www.w3.org/1999/xlink">
    <title>com.sengled/driver/ledstrip/pair/assets/image</title>
    <g id="com.sengled/driver/ledstrip/pair/assets/image" stroke="none" stroke-width="1" fill="none" fill-rule="evenodd">
        <path d="M351.809641,47.9583482 L608.058645,47.9583482 C632.694029,47.9583482 660.140444,62.2672432 669.361929,79.9181597 C678.583414,97.5690762 662.227013,111.877971 632.828884,111.877971 L327.039402,111.877971 C297.641274,111.877971 281.284872,97.5690762 290.506357,79.9181597 C299.727842,62.2672432 327.174257,47.9583482 351.809641,47.9583482 Z" id="Rectangle" stroke="#000000" stroke-width="10" stroke-linecap="round" stroke-linejoin="round"></path>
        <path d="M613.296681,48 C634.211609,48 657.066738,57.4693389 670.058121,70.5076324 C698.392882,90.2678432 719.510405,124.9306 718.99061,155.711023 C715.268646,376.112472 711.546682,596.51392 707.824718,816.915369 C706.937907,869.429161 665.436099,912 615.127836,912 L615.127836,912 L344.87882,912 C294.570556,912 253.068748,869.429161 252.181937,816.915369 C248.459974,596.51392 244.73801,376.112472 241.016046,155.711023 C240.472502,123.524292 253.71455,103.92436 284.285245,75.9185117 C288.352656,70.3484774 294.260039,65.2259967 301.246472,60.9311609 C301.988263,60.2937632 302.738334,59.6494405 303.49585,59 L303.49585,59 L304.562586,58.9992784 C316.774603,52.2598604 331.675369,48 345.703319,48 L613.296681,48 Z" id="Combined-Shape" stroke="#000000" stroke-width="20" stroke-linecap="round" stroke-linejoin="round"></path>
        <path d="M480.398286,485.71197 C549.720399,485.71197 606.561065,428.852133 607.355468,358.71197 C608.149871,288.571807 551.494322,231.71197 480.811759,231.71197 C410.129195,231.71197 353.288529,288.571807 353.854577,358.71197 C354.420626,428.852133 411.076174,485.71197 480.398286,485.71197 Z" id="Oval" stroke="#000000" stroke-width="10" stroke-linecap="round" stroke-linejoin="round"></path>
        <path d="M480.445995,456.404278 C533.891447,456.404278 577.615036,412.665942 578.105365,358.71197 C578.595694,304.757998 535.014503,261.019662 480.76405,261.019662 C426.513598,261.019662 382.790008,304.757998 383.10468,358.71197 C383.419352,412.665942 427.000543,456.404278 480.445995,456.404278 Z" id="Oval" stroke="#000000" stroke-width="10" stroke-linecap="round" stroke-linejoin="round"></path>
        <path d="M279.90821,215.415075 L288.476343,799.856816 C289.013446,836.493184 317.961975,866.192829 353.134693,866.192829 L607.588979,866.192829 C642.761697,866.192829 671.710226,836.493184 672.247329,799.856816 L680.815462,215.415075 C681.197806,189.334949 660.122336,168.192829 633.742082,168.192829 L326.98159,168.192829 C300.601336,168.192829 279.525866,189.334949 279.90821,215.415075 Z" id="Path-7" stroke="#000000" stroke-width="10" stroke-linecap="round" stroke-linejoin="round"></path>
        <path d="M347.850386,912 C356.517053,928 360.850386,944 360.850386,960" id="Path-8" stroke="#000000" stroke-width="10" stroke-linecap="round" stroke-linejoin="round"></path>
        <rect id="Rectangle" fill="#000000" x="569" y="73" width="54" height="17" rx="8.5"></rect>
        <rect class="pair" fill="#0074CC" x="569" y="73" width="54" height="17" rx="8.5"></rect>
        <path d="M594.850386,912 C603.517053,928 607.850386,944 607.850386,960" id="Path-8" stroke="#000000" stroke-width="10" stroke-linecap="round" stroke-linejoin="round" transform="translate(601.350386, 936.000000) scale(-1, 1) translate(-601.350386, -936.000000) "></path>
    </g>
    <style type="text/css">
    .pair {
        animation: pairing 8s infinite;
    }

    @keyframes pairing {
        0%, 5%, 95%, 100% {
            fill: rgba(255,255,255,0);
        }
        10%, 90% {
            fill: #0078CC;
        }
    }
    </style>
</svg>