<svg height="960" viewBox="0 0 960 960" width="960" xmlns="http://www.w3.org/2000/svg"><g fill="none" fill-rule="evenodd"><path d="m479.652786 24.3723949c139.998051 0 259.987028 44.3300158 312.026325 94.7915841 11.885769 11.525416 20.214614 23.840109 24.409747 36.703383 1.993139 6.111437 1.748149 33.277639-.040324 38.725741l-.009011-.000458c-2.565946 11.936809-5.7798 23.344004-9.641563 34.221585l-.630016 1.770414-1.261481 3.519192c-.210436.584136-.420976 1.167075-.631634 1.748822l-1.265478 3.476207-1.26899 3.447772c-19.488247 52.648746-40.454225 95.332282-73.894469 130.93602l-8.626397 9.187087-4.200115 4.483816-4.124428 4.418107c-62.659832 67.269092-98.548713 113.334187-104.041809 228.768883l-1.626621 33.671085-1.222859 24.401317-.630821 12.117893-.79933 14.635936-.462999 7.910228-.251036 4.018208c-.044017.682925-.094134 1.328576-.149632 1.939499l-.087193.89066c-.015175.144209-.030663.286327-.046455.426394l-.098288.816109-.105012.768797c-.090161.621483-.186763 1.195674-.288401 1.72755-.057829.30262-.18058.720065-.361678 1.237466l-.200302.550168-.237737.613502c-.042661.107345-.086821.21719-.13245.329468l-.29115.702307-.32493.757379c-.056889.130636-.115125.263429-.174677.39831l-.372862.833793-.402988.880607-.431654.924115-.458858.96432-.484599 1.00122-.50888 1.034817-.531698 1.065109-.553056 1.092098-.866429 1.681521-.600053 1.145113-.616294 1.160538-.631073 1.172657-.644391 1.181473-.656247 1.186985-.666641 1.189193-.675574 1.188096-.683045 1.183696-.689055 1.175992c-.230524.390346-.461806.778857-.693602 1.164983l-.696688 1.15067c-.116291.190402-.232649.38007-.349045.568936l-.698576 1.123006c-.116423.185379-.232822.369816-.349167.553245l-.697176 1.087908c-4.176238 6.448167-8.2034 11.409773-10.660744 11.673258l-.201115.011013h-189.084527c-2.434843 0-6.569615-5.056988-10.861859-11.684271l-.697176-1.087908c-.116345-.183429-.232744-.367866-.349167-.553245l-.698577-1.123006-.697683-1.142275c-.232249-.383603-.464107-.769867-.695328-1.15824l-.691511-1.170901c-.114852-.196021-.229485-.392433-.343867-.589165l-.683045-1.183696-.675574-1.188096-.666641-1.189193-.656247-1.186985-.644391-1.181473-.631073-1.172657-.616294-1.160538-.600053-1.145113-.58235-1.126385-.563185-1.104352-.805648-1.607991-.50888-1.034817-.484599-1.00122-.458858-.96432-.431654-.924115-.402989-.880607-.372861-.833793c-.059552-.134881-.117788-.267674-.174677-.39831l-.324931-.757379-.291149-.702307c-.045629-.112278-.089789-.222123-.13245-.329468l-.237738-.613502-.200302-.550168c-.181097-.517401-.303849-.934846-.361677-1.237466-.081311-.425501-.159398-.878083-.233543-1.360295l-.108171-.745859c-.017505-.12812-.034742-.258171-.051699-.390193l-.098289-.816109-.091026-.865332c-.058144-.59372-.111086-1.221529-.158108-1.885976l-.220001-3.458213-.528179-8.975468-.663438-12.082249-.818061-15.674528-1.231735-24.623837-1.289194-26.633431-.277203-5.812186c-5.493096-115.434696-41.381978-161.499791-104.041809-228.768883l-4.124428-4.418107-4.200116-4.483816-8.626396-9.187087c-33.440244-35.603738-54.406222-78.287274-73.894469-130.93602l-1.26899-3.447772-1.265479-3.476207c-.210658-.581747-.421197-1.164686-.631633-1.748822l-1.261481-3.519192c-.210077-.588933-.420077-1.17907-.630016-1.770414-3.565875-10.044142-6.579323-20.53985-9.040345-31.487122l-.00987.001175c-2.715293-7.220229-2.875351-36.232984-.462972-43.050728 4.296554-12.142701 12.281613-23.784156 23.464784-34.719718 51.81882-50.6714859 172.537551-95.1854421 312.899552-95.1854421z" stroke="#000" stroke-linecap="round" stroke-linejoin="round" stroke-width="40"/><path d="m568.389628 777.582246c-.801369 1.960675-4.513433 15.162606-5.605217 20.972209-1.091783 6.637931-1.891697 14.031012-2.693066 22.028364-.509499 8.826433-1.01827 18.180189-1.31014 27.007377-.194095 6.789564-.194095 17.426297 0 31.910197l-31.369854 33.345058-20.453474 18.482703-.509499.301758c-3.712065 3.318588-7.423401 6.638685-26.857149 7.467766h-.29187c-19.142606-.829081-22.853942-4.149178-26.566734-7.467766l-.509499-.301758-20.452746-18.482703-31.07944-33.345058h-.290414c.193609-14.4839.193609-25.120633 0-31.910197-.219085-8.827188-.801369-18.180944-1.310868-27.007377-.800642-7.997352-1.600555-15.390433-2.692339-22.028364-1.019726-5.809603-4.731062-19.011534-5.822846-20.972209" stroke="#000" stroke-linecap="round" stroke-linejoin="round" stroke-width="40"/><path d="m399.61144 861.303548c-6.235057 30.623721 20.397403 45.935582 79.897381 45.935582 59.499977 0 84.857282-15.311861 76.071915-45.935582-24.037167 4.87312-49.358183 7.309679-75.963047 7.309679s-53.273614-2.436559-80.006249-7.309679z" fill="#000"/><g stroke="#000" stroke-linecap="round" stroke-linejoin="round" stroke-width="20"><path d="m398.724335 797.108863c23.769389 3.466667 58.097593 5.2 102.98461 5.2"/><path d="m398.724335 819.858863c23.769389 3.9 58.097593 5.85 102.98461 5.85"/><path d="m398.724335 843.908863c23.769389 3.466667 58.097593 5.2 102.98461 5.2"/><path d="m141.589963 163.798318c112.851197 5.183029 225.592546 7.774543 338.224046 7.774543 112.631501 0 225.189769-2.591514 337.674805-7.774543"/><path d="m357.554264 714.372249c40.3412-9.444067 80.6824-14.166101 121.0236-14.166101s80.6824 4.722034 121.0236 14.166101"/></g></g></svg>