<?xml version="1.0" encoding="UTF-8"?>
<svg width="960px" height="960px" viewBox="0 0 960 960" version="1.1" xmlns="http://www.w3.org/2000/svg" xmlns:xlink="http://www.w3.org/1999/xlink">
<style type="text/css">
    .pair {
        animation: pairing 11s infinite;
    }

    @keyframes pairing {
        0%, 5%, 15%, 25%, 35%, 45%, 55%, 100% {
            fill: rgba(255,255,255,0);
        }
        10%, 20%, 30%, 40%, 50% {
            fill: #FFF67A;
        }
    }
    </style>
    <title>com.sengled/driver/br30rgb/pair/assets/image</title>
    <g id="com.sengled/driver/br30rgb/pair/assets/image" stroke="none" stroke-width="1" fill="none" fill-rule="evenodd">
        <path d="M479.652786,24.3723949 C619.650837,24.3723949 739.639814,68.7024107 791.679111,119.163979 C803.56488,130.689395 811.893725,143.004088 816.088858,155.867362 C816.193459,156.188094 816.291896,156.566816 816.384269,156.997345 L816.492213,157.538451 C816.544736,157.821043 816.59509,158.121394 816.643297,158.43817 L816.736856,159.093227 C816.751974,159.205921 816.766856,159.320341 816.781501,159.436438 L816.866544,160.152742 L816.866544,160.152742 L816.945959,160.90691 L816.945959,160.90691 L817.019785,161.696569 L817.019785,161.696569 L817.088058,162.519343 L817.088058,162.519343 L817.180144,163.810404 L817.180144,163.810404 C704.797628,168.986091 592.342368,171.572861 479.814009,171.572861 C367.182509,171.572861 254.44116,168.981347 141.589963,163.798318 L141.895209,163.810549 L141.957322,162.917867 L141.957322,162.917867 L142.025188,162.050149 L142.025188,162.050149 L142.098805,161.209299 L142.098805,161.209299 L142.178175,160.397221 L142.178175,160.397221 L142.263299,159.615816 L142.263299,159.615816 L142.354177,158.866989 C142.385429,158.623022 142.41764,158.3848 142.450811,158.152643 L142.5532,157.474681 C142.570744,157.364825 142.588529,157.256565 142.606553,157.149939 L142.717577,156.530122 C142.888432,155.630776 143.078719,154.870286 143.28845,154.277555 C147.585004,142.134854 155.570063,130.493399 166.753234,119.557837 C218.572054,68.8863511 339.290785,24.3723949 479.652786,24.3723949 Z" class="pair" fill="#FFF67A"></path>
        <path d="M479.652786,24.3723949 C619.650837,24.3723949 739.639814,68.7024107 791.679111,119.163979 C803.56488,130.689395 811.893725,143.004088 816.088858,155.867362 C818.081997,161.978799 817.837007,189.145001 816.048534,194.593103 L816.039523,194.592645 C813.473577,206.529454 810.259723,217.936649 806.39796,228.81423 L805.767944,230.584644 L804.506463,234.103836 C804.296027,234.687972 804.085487,235.270911 803.874829,235.852658 L802.609351,239.328865 L801.340361,242.776637 C781.852114,295.425383 760.886136,338.108919 727.445892,373.712657 L718.819495,382.899744 L714.61938,387.38356 L710.494952,391.801667 C647.83512,459.070759 611.946239,505.135854 606.453143,620.57055 L604.826522,654.241635 L603.603663,678.642952 L602.972842,690.760845 L602.173512,705.396781 L601.710513,713.307009 L601.459477,717.325217 C601.41546,718.008142 601.365343,718.653793 601.309845,719.264716 L601.222652,720.155376 C601.207477,720.299585 601.191989,720.441703 601.176197,720.58177 L601.077909,721.397879 L600.972897,722.166676 C600.882736,722.788159 600.786134,723.36235 600.684496,723.894226 C600.626667,724.196846 600.503916,724.614291 600.322818,725.131692 L600.122516,725.68186 L599.884779,726.295362 C599.842118,726.402707 599.797958,726.512552 599.752329,726.62483 L599.461179,727.327137 L599.136249,728.084516 C599.07936,728.215152 599.021124,728.347945 598.961572,728.482826 L598.58871,729.316619 L598.185722,730.197226 L597.754068,731.121341 L597.29521,732.085661 L596.810611,733.086881 L596.301731,734.121698 L595.770033,735.186807 L595.216977,736.278905 L594.350548,737.960426 L593.750495,739.105539 L593.134201,740.266077 L592.503128,741.438734 L591.858737,742.620207 L591.20249,743.807192 L590.535849,744.996385 L589.860275,746.184481 L589.17723,747.368177 L588.488175,748.544169 C588.257651,748.934515 588.026369,749.323026 587.794573,749.709152 L587.097885,750.859822 C586.981594,751.050224 586.865236,751.239892 586.74884,751.428758 L586.050264,752.551764 C585.933841,752.737143 585.817442,752.92158 585.701097,753.105009 L585.003921,754.192917 C580.827683,760.641084 576.800521,765.60269 574.343177,765.866175 L574.142062,765.877188 L385.057535,765.877188 C382.622692,765.877188 378.48792,760.8202 374.195676,754.192917 L373.4985,753.105009 C373.382155,752.92158 373.265756,752.737143 373.149333,752.551764 L372.450756,751.428758 L371.753073,750.286483 C371.520824,749.90288 371.288966,749.516616 371.057745,749.128243 L370.366234,747.957342 C370.251382,747.761321 370.136749,747.564909 370.022367,747.368177 L369.339322,746.184481 L368.663748,744.996385 L367.997107,743.807192 L367.34086,742.620207 L366.696469,741.438734 L366.065396,740.266077 L365.449102,739.105539 L364.849049,737.960426 L364.266699,736.834041 L363.703514,735.729689 L362.897866,734.121698 L362.388986,733.086881 L361.904387,732.085661 L361.445529,731.121341 L361.013875,730.197226 L360.610886,729.316619 L360.238025,728.482826 C360.178473,728.347945 360.120237,728.215152 360.063348,728.084516 L359.738417,727.327137 L359.447268,726.62483 C359.401639,726.512552 359.357479,726.402707 359.314818,726.295362 L359.07708,725.68186 L358.876778,725.131692 C358.695681,724.614291 358.572929,724.196846 358.515101,723.894226 C358.43379,723.468725 358.355703,723.016143 358.281558,722.533931 L358.173387,721.788072 C358.155882,721.659952 358.138645,721.529901 358.121688,721.397879 L358.023399,720.58177 L357.932373,719.716438 C357.874229,719.122718 357.821287,718.494909 357.774265,717.830462 L357.554264,714.372249 L357.026085,705.396781 L356.362647,693.314532 L355.544586,677.640004 L354.312851,653.016167 L353.023657,626.382736 L352.746454,620.57055 C347.253358,505.135854 311.364476,459.070759 248.704645,391.801667 L244.580217,387.38356 L240.380101,382.899744 L231.753705,373.712657 C198.313461,338.108919 177.347483,295.425383 157.859236,242.776637 L156.590246,239.328865 L155.324767,235.852658 C155.114109,235.270911 154.90357,234.687972 154.693134,234.103836 L153.431653,230.584644 C153.221576,229.995711 153.011576,229.405574 152.801637,228.81423 C149.235762,218.770088 146.222314,208.27438 143.761292,197.327108 L143.751422,197.328283 C141.036129,190.108054 140.876071,161.095299 143.28845,154.277555 C147.585004,142.134854 155.570063,130.493399 166.753234,119.557837 C218.572054,68.8863511 339.290785,24.3723949 479.652786,24.3723949 Z" id="Path" stroke="#000000" stroke-width="40" stroke-linecap="round" stroke-linejoin="round"></path>
        <path d="M568.389628,777.582246 C567.588259,779.542921 563.876195,792.744852 562.784411,798.554455 C561.692628,805.192386 560.892714,812.585467 560.091345,820.582819 C559.581846,829.409252 559.073075,838.763008 558.781205,847.590196 C558.58711,854.37976 558.58711,865.016493 558.781205,879.500393 L527.411351,912.845451 L506.957877,931.328154 L506.448378,931.629912 C502.736313,934.9485 499.024977,938.268597 479.591229,939.097678 L479.299359,939.097678 C460.156753,938.268597 456.445417,934.9485 452.732625,931.629912 L452.223126,931.328154 L431.77038,912.845451 L400.69094,879.500393 L400.400526,879.500393 C400.594135,865.016493 400.594135,854.37976 400.400526,847.590196 C400.181441,838.763008 399.599157,829.409252 399.089658,820.582819 C398.289016,812.585467 397.489103,805.192386 396.397319,798.554455 C395.377593,792.744852 391.666257,779.542921 390.574473,777.582246" id="Path" stroke="#000000" stroke-width="40" stroke-linecap="round" stroke-linejoin="round"></path>
        <path d="M399.61144,861.303548 C393.376383,891.927269 420.008843,907.23913 479.508821,907.23913 C539.008798,907.23913 564.366103,891.927269 555.580736,861.303548 C531.543569,866.176668 506.222553,868.613227 479.617689,868.613227 C453.012825,868.613227 426.344075,866.176668 399.61144,861.303548 Z" id="Path-9" fill="#000000"></path>
        <path d="M398.724335,797.108863 C422.493724,800.57553 456.821928,802.308863 501.708945,802.308863" id="Path-10" stroke="#000000" stroke-width="20" stroke-linecap="round" stroke-linejoin="round"></path>
        <path d="M398.724335,819.858863 C422.493724,823.758863 456.821928,825.708863 501.708945,825.708863" id="Path-10" stroke="#000000" stroke-width="20" stroke-linecap="round" stroke-linejoin="round"></path>
        <path d="M398.724335,843.908863 C422.493724,847.37553 456.821928,849.108863 501.708945,849.108863" id="Path-10" stroke="#000000" stroke-width="20" stroke-linecap="round" stroke-linejoin="round"></path>
        <path d="M141.589963,163.798318 C254.44116,168.981347 367.182509,171.572861 479.814009,171.572861 C592.44551,171.572861 705.003778,168.981347 817.488814,163.798318" id="Path-2" stroke="#000000" stroke-width="20" stroke-linecap="round" stroke-linejoin="round"></path>
        <path d="M357.554264,714.372249 C397.895464,704.928182 438.236664,700.206148 478.577864,700.206148 C518.919064,700.206148 559.260264,704.928182 599.601464,714.372249" id="Path-4" stroke="#000000" stroke-width="20" stroke-linecap="round" stroke-linejoin="round"></path>
    </g>
</svg>